<svg width="91" height="37" viewBox="0 0 91 37" fill="none" xmlns="http://www.w3.org/2000/svg">
<path fill-rule="evenodd" clip-rule="evenodd" d="M36.8139 18.4066C36.8139 16.1423 36.3849 13.9825 35.637 11.9793C35.4391 18.573 28.7371 23.6781 24.8024 27.0565H34.6513C36.028 24.4769 36.8139 21.5341 36.8139 18.4066ZM29.694 3.88781C26.5756 1.45998 22.6657 0 18.4073 0C8.24135 0 0 8.24134 0 18.4066C0 28.5718 8.24135 36.8129 18.4073 36.8129C23.0625 36.8129 27.3012 35.0711 30.5428 32.2209H17.2165L17.1759 28.3073C25.2055 21.3271 30.1277 16.6064 30.1277 12.0466C30.1277 10.3521 29.4822 8.21358 26.5774 8.21358C24.2772 8.21358 22.0582 9.54595 22.4616 15.1134H17.7815C16.6111 8.6583 20.1216 3.53351 26.8188 3.53351C27.8571 3.53351 28.8176 3.65745 29.694 3.88781Z" fill="#A5C520"/>
<rect x="66.624" y="3.26318" width="4.35095" height="25.8338" fill="white"/>
<path fill-rule="evenodd" clip-rule="evenodd" d="M58.3259 11.279H62.6796C62.8285 7.96743 61.7126 2.71973 54.5308 2.71973C49.2461 2.71973 45.4131 5.88343 45.4131 12.4698C45.4131 13.363 45.45 17.9772 45.45 20.8425C45.45 27.9881 50.4 29.5506 54.5678 29.5506C57.0611 29.5506 60.6706 28.9921 62.345 27.1689V15.7816H54.1581V19.9124H57.8054V24.9363C55.0513 25.8664 50.0274 26.2388 50.0274 19.9124V12.4698C50.0274 8.04134 52.0744 6.51582 54.344 6.51582C56.6887 6.51582 58.3259 7.70667 58.3259 11.279ZM90.7113 22.3308C90.8971 12.1351 79.2129 15.5208 79.3238 9.82763C79.3607 7.81858 80.6635 6.51582 82.7852 6.51582C85.055 6.51582 86.3937 7.85553 86.3567 11.3539H90.6363C90.7482 8.1902 90.004 2.79467 82.9341 2.79467C78.5425 2.79467 74.9333 4.95337 74.8583 9.75344C74.6725 19.5397 86.4317 16.3398 86.2459 22.2569C86.1709 24.6755 84.4216 25.7545 82.4498 25.7545C80.143 25.7545 78.282 24.4147 78.6545 20.3959H74.3368C73.8533 25.7175 76.1981 29.5136 82.4128 29.5136C87.6595 29.5136 90.6363 26.6104 90.7113 22.3308ZM71.052 29.1779H66.6615V3.12934H71.052V29.1779ZM71.052 29.1779H66.6615V3.12934H71.052V29.1779Z" fill="white"/>
</svg>
