<svg width="61" height="29" viewBox="0 0 61 29" fill="none" xmlns="http://www.w3.org/2000/svg">
<path d="M14.7955 0.693181C6.92045 0.693181 0.681818 6.93182 0.681818 14.7045C0.681818 22.5795 6.92045 28.8182 14.7955 28.8182C20.3182 28.8182 24.5114 26.0568 27.375 23.2955C28.6023 22.0682 29.625 20.8409 30.5455 19.7159C31.3636 20.8409 32.3864 22.0682 33.6136 23.2955C36.4773 26.0568 40.6705 28.8182 46.2955 28.8182C54.0682 28.8182 60.3068 22.5795 60.3068 14.7045C60.3068 6.93182 54.0682 0.693181 46.2955 0.693181C40.6705 0.693181 36.4773 3.45455 33.6136 6.31818C32.1818 7.64773 31.3636 8.67045 30.5455 9.79545C29.625 8.67045 28.6023 7.44318 27.375 6.31818C24.5114 3.45455 20.3182 0.693181 14.7955 0.693181ZM54.4773 14.7045C54.4773 19.3068 50.7955 22.9886 46.2955 22.9886C42.8182 22.9886 40.0568 21.25 37.7045 19C36.1705 17.4659 35.0455 16.0341 34.125 14.7045C34.6364 14.0909 35.8636 12.25 37.7045 10.5114C39.9545 8.26136 42.8182 6.52273 46.2955 6.52273C50.7955 6.52273 54.4773 10.2045 54.4773 14.7045ZM6.51136 14.7045C6.51136 10.2045 10.1932 6.52273 14.7955 6.52273C18.1705 6.52273 21.0341 8.26136 23.2841 10.5114C24.9205 12.0455 25.9432 13.4773 26.8636 14.7045C25.9432 16.0341 24.8182 17.4659 23.2841 19C20.9318 21.25 18.1705 22.9886 14.7955 22.9886C10.1932 22.9886 6.51136 19.3068 6.51136 14.7045Z" fill="#323232"/>
<path d="M27.375 23.2955L28.0691 24.0153L28.0757 24.009L28.0821 24.0026L27.375 23.2955ZM30.5455 19.7159L31.3542 19.1277L30.592 18.0798L29.7715 19.0827L30.5455 19.7159ZM33.6136 23.2955L32.9065 24.0026L32.913 24.009L32.9195 24.0153L33.6136 23.2955ZM33.6136 6.31818L34.2941 7.05098L34.3077 7.03838L34.3207 7.02529L33.6136 6.31818ZM30.5455 9.79546L29.7715 10.4287L30.592 11.4316L31.3542 10.3836L30.5455 9.79546ZM27.375 6.31818L26.6679 7.02529L26.6833 7.04065L26.6993 7.05534L27.375 6.31818ZM37.7045 19L36.9974 19.7071L37.0053 19.715L37.0133 19.7226L37.7045 19ZM34.125 14.7045L33.3568 14.0644L32.87 14.6485L33.3028 15.2738L34.125 14.7045ZM37.7045 10.5114L38.3912 11.2384L38.4016 11.2286L38.4117 11.2185L37.7045 10.5114ZM23.2841 10.5114L22.577 11.2185L22.5884 11.2299L22.6002 11.2409L23.2841 10.5114ZM26.8636 14.7045L27.6858 15.2738L28.0961 14.6812L27.6636 14.1045L26.8636 14.7045ZM23.2841 19L23.9753 19.7226L23.9833 19.715L23.9912 19.7071L23.2841 19ZM14.7955 -0.30682C6.37293 -0.30682 -0.318182 6.37479 -0.318182 14.7045H1.68182C1.68182 7.48885 7.46798 1.69318 14.7955 1.69318V-0.30682ZM-0.318182 14.7045C-0.318182 23.1318 6.36817 29.8182 14.7955 29.8182V27.8182C7.47274 27.8182 1.68182 22.0273 1.68182 14.7045H-0.318182ZM14.7955 29.8182C20.675 29.8182 25.1041 26.8745 28.0691 24.0153L26.6809 22.5756C23.9187 25.2392 19.9614 27.8182 14.7955 27.8182V29.8182ZM28.0821 24.0026C29.3469 22.7377 30.3962 21.4776 31.3194 20.3491L29.7715 19.0827C28.8538 20.2042 27.8576 21.3986 26.6679 22.5883L28.0821 24.0026ZM29.7367 20.3041C30.584 21.4691 31.6405 22.7365 32.9065 24.0026L34.3207 22.5883C33.1323 21.3999 32.1432 20.2127 31.3542 19.1277L29.7367 20.3041ZM32.9195 24.0153C35.8875 26.8773 40.3165 29.8182 46.2955 29.8182V27.8182C41.0245 27.8182 37.067 25.2363 34.3078 22.5756L32.9195 24.0153ZM46.2955 29.8182C54.6252 29.8182 61.3068 23.1271 61.3068 14.7045H59.3068C59.3068 22.032 53.5112 27.8182 46.2955 27.8182V29.8182ZM61.3068 14.7045C61.3068 6.37953 54.6205 -0.30682 46.2955 -0.30682V1.69318C53.5159 1.69318 59.3068 7.4841 59.3068 14.7045H61.3068ZM46.2955 -0.30682C40.3146 -0.30682 35.8821 2.63556 32.9065 5.61107L34.3207 7.02529C37.0725 4.27354 41.0263 1.69318 46.2955 1.69318V-0.30682ZM32.9332 5.58539C31.4419 6.97014 30.5817 8.04538 29.7367 9.20728L31.3542 10.3836C32.1455 9.29553 32.9217 8.32531 34.2941 7.05098L32.9332 5.58539ZM31.3194 9.16222C30.3986 8.03678 29.3361 6.75933 28.0507 5.58103L26.6993 7.05534C27.8684 8.12703 28.8514 9.30413 29.7715 10.4287L31.3194 9.16222ZM28.0821 5.61107C25.1095 2.63844 20.6769 -0.30682 14.7955 -0.30682V1.69318C19.9594 1.69318 23.9133 4.27065 26.6679 7.02529L28.0821 5.61107ZM53.4773 14.7045C53.4773 18.7626 50.2351 21.9886 46.2955 21.9886V23.9886C51.3558 23.9886 55.4773 19.851 55.4773 14.7045H53.4773ZM46.2955 21.9886C43.1855 21.9886 40.6602 20.4434 38.3958 18.2774L37.0133 19.7226C39.4534 22.0566 42.4509 23.9886 46.2955 23.9886V21.9886ZM38.4117 18.2929C36.927 16.8083 35.8397 15.4245 34.9472 14.1353L33.3028 15.2738C34.2512 16.6437 35.4139 18.1235 36.9974 19.7071L38.4117 18.2929ZM34.8932 15.3447C35.4967 14.6206 36.6041 12.9261 38.3912 11.2384L37.0179 9.78435C35.1231 11.5739 33.7761 13.5612 33.3568 14.0644L34.8932 15.3447ZM38.4117 11.2185C40.5527 9.07747 43.1769 7.52273 46.2955 7.52273V5.52273C42.4594 5.52273 39.3564 7.44526 36.9974 9.80426L38.4117 11.2185ZM46.2955 7.52273C50.2432 7.52273 53.4773 10.7568 53.4773 14.7045H55.4773C55.4773 9.65226 51.3477 5.52273 46.2955 5.52273V7.52273ZM7.51136 14.7045C7.51136 10.7649 10.7374 7.52273 14.7955 7.52273V5.52273C9.64901 5.52273 5.51136 9.64418 5.51136 14.7045H7.51136ZM14.7955 7.52273C17.8074 7.52273 20.4317 9.07316 22.577 11.2185L23.9912 9.80426C21.6365 7.44956 18.5335 5.52273 14.7955 5.52273V7.52273ZM22.6002 11.2409C24.1616 12.7048 25.1328 14.0634 26.0636 15.3045L27.6636 14.1045C26.7536 12.8911 25.6793 11.3861 23.968 9.78183L22.6002 11.2409ZM26.0414 14.1353C25.1489 15.4245 24.0616 16.8083 22.577 18.2929L23.9912 19.7071C25.5748 18.1235 26.7374 16.6437 27.6858 15.2738L26.0414 14.1353ZM22.5929 18.2774C20.3238 20.4478 17.7991 21.9886 14.7955 21.9886V23.9886C18.5418 23.9886 21.5398 22.0522 23.9753 19.7226L22.5929 18.2774ZM14.7955 21.9886C10.7455 21.9886 7.51136 18.7545 7.51136 14.7045H5.51136C5.51136 19.8591 9.6409 23.9886 14.7955 23.9886V21.9886Z" fill="#323232"/>
</svg>
